<svg xmlns="http://www.w3.org/2000/svg" width="23.124" height="21.027" viewBox="0 0 23.124 21.027">
  <g id="Контур_1" data-name="Контур 1" transform="translate(26.062 25) rotate(180)" fill="#f2f2f2">
    <path d="M 22.05588912963867 24.50000381469727 L 6.944109916687012 24.50000381469727 C 5.677350044250488 24.50000381469727 4.543580055236816 23.84466361999512 3.911289930343628 22.74698448181152 C 3.279000043869019 21.6493034362793 3.28095006942749 20.33977317810059 3.916510105133057 19.24398422241211 L 11.47239971160889 6.216593742370605 C 12.10573101043701 5.124630451202393 13.2376537322998 4.47261381149292 14.49997138977051 4.47261381149292 C 14.50004768371582 4.47261381149292 14.49992275238037 4.47261381149292 14.5 4.47261381149292 C 15.76241016387939 4.472603797912598 16.89422988891602 5.124563694000244 17.5275993347168 6.216593742370605 L 25.0834903717041 19.24398422241211 C 25.71904945373535 20.33977317810059 25.72101020812988 21.6493034362793 25.08872032165527 22.74698448181152 C 24.45643043518066 23.84466361999512 23.32266044616699 24.50000381469727 22.05588912963867 24.50000381469727 Z" stroke="none"/>
    <path d="M 14.5 4.972602844238281 C 13.41792964935303 4.972602844238281 12.44779968261719 5.531423568725586 11.90489959716797 6.467453002929688 L 4.349020004272461 19.49484252929688 C 3.804250717163086 20.4340934753418 3.802579879760742 21.55654335021973 4.344539642333984 22.49741363525391 C 4.886510848999023 23.43828392028809 5.858310699462891 24.00000381469727 6.944110870361328 24.00000381469727 L 22.05588912963867 24.00000381469727 C 23.14168930053711 24.00000381469727 24.11349105834961 23.43828392028809 24.65544891357422 22.49741363525391 C 25.19741058349609 21.55655288696289 25.19573974609375 20.4340934753418 24.65097999572754 19.49484252929688 L 17.09508895874023 6.467453002929688 C 16.55218887329102 5.531423568725586 15.58207035064697 4.972602844238281 14.5 4.972602844238281 M 14.49999904632568 3.972600936889648 C 15.84472274780273 3.972600936889648 17.18944549560547 4.636978149414062 17.96012115478516 5.965734481811523 L 25.51601028442383 18.99312400817871 C 27.06266975402832 21.6597843170166 25.13862037658691 24.9999942779541 22.05588912963867 25.00000381469727 L 6.944110870361328 25.00000381469727 C 3.861379623413086 24.9999942779541 1.937320709228516 21.6597843170166 3.483989715576172 18.99312400817871 L 11.03986930847168 5.965734481811523 C 11.81055068969727 4.636978149414062 13.15527534484863 3.972600936889648 14.49999904632568 3.972600936889648 Z" stroke="none" fill="#707070"/>
  </g>
</svg>
